/* XPM */
static char *_8cb7088fbd342b1f08502d848064533qYkZjPFPcCaZAbJz[] = {
/* columns rows colors chars-per-pixel */
"50 50 209 2 ",
"   c #2F2002",
".  c #2E240C",
"X  c #3B290D",
"o  c #282617",
"O  c #2D2A1B",
"+  c #382D15",
"@  c #2A2827",
"#  c #3B382A",
"$  c #463818",
"%  c #453D1C",
"&  c #453B25",
"*  c #4E4119",
"=  c #57461D",
"-  c #4B4024",
";  c #4D422B",
":  c #574624",
">  c #5B4B2C",
",  c #59522E",
"<  c #4D4933",
"1  c #5F5637",
"2  c #685B33",
"3  c #6D633C",
"4  c #72633A",
"5  c #77653A",
"6  c #4A4A49",
"7  c #4C4F4F",
"8  c #565758",
"9  c #5C5B5A",
"0  c #695A40",
"q  c #766546",
"w  c #67655B",
"e  c #776D5E",
"r  c #6A6966",
"t  c #797366",
"y  c #767473",
"u  c #816B36",
"i  c #867A4D",
"p  c #887849",
"a  c #927F4B",
"s  c #877A59",
"d  c #817F7E",
"f  c #7F807E",
"g  c #9D844C",
"h  c #948353",
"j  c #95845D",
"k  c #9D8B5B",
"l  c #A38B4F",
"z  c #AA995E",
"x  c #B29B59",
"c  c #8B826D",
"v  c #9A8861",
"b  c #86847C",
"n  c #9C9174",
"m  c #9A937D",
"M  c #A99867",
"N  c #AA996A",
"B  c #B29E6B",
"V  c #AC9C73",
"C  c #A69A7C",
"Z  c #BBA364",
"A  c #B3A26E",
"S  c #BAA96D",
"D  c #AEA070",
"F  c #B8A777",
"G  c #B7AA74",
"H  c #C1A96A",
"J  c #CFB86B",
"K  c #C2AE74",
"L  c #C1AE7E",
"P  c #CFB975",
"I  c #C8B479",
"U  c #D3BA75",
"Y  c #D4BC7C",
"T  c #D6C27C",
"R  c #D9C278",
"E  c #7B7F87",
"W  c #878584",
"Q  c #8C8A8A",
"!  c #969384",
"~  c #959493",
"^  c #A79D89",
"/  c #A39F9A",
"(  c #A9A38F",
")  c #BBAC82",
"_  c #A8A39A",
"`  c #B6AB96",
"'  c #BFB397",
"]  c #9FA3AB",
"[  c #A5A3A2",
"{  c #A8A6A3",
"}  c #AEAAA4",
"|  c #ACAAA9",
" . c #B4ACA5",
".. c #B3AEAC",
"X. c #B9B1A4",
"o. c #B6B2AC",
"O. c #BAB4AC",
"+. c #AFB6BF",
"@. c #B6B5B2",
"#. c #BAB6B3",
"$. c #BDB9B5",
"%. c #B0B5BF",
"&. c #BDBCBA",
"*. c #C3B484",
"=. c #C8B988",
"-. c #CCBC8A",
";. c #D5BD83",
":. c #D3BF8A",
">. c #C4BC9B",
",. c #D3BE92",
"<. c #C4B9A7",
"1. c #C5BBAE",
"2. c #C3BCB4",
"3. c #C2BEBB",
"4. c #D6C282",
"5. c #DAC383",
"6. c #D4C28B",
"7. c #DCC78D",
"8. c #DCC98C",
"9. c #CEC194",
"0. c #D4C395",
"q. c #DDCA94",
"w. c #D4C59A",
"e. c #D7C89A",
"r. c #DDCC9B",
"t. c #DED096",
"y. c #DED19C",
"u. c #E2CB8D",
"i. c #E2CD95",
"p. c #E2CE9A",
"a. c #E4D296",
"s. c #E4D29D",
"d. c #E9D69D",
"f. c #EAD89E",
"g. c #DECEA1",
"h. c #DED1A1",
"j. c #DFD3AA",
"k. c #C4C4B6",
"l. c #C4C1BE",
"z. c #CAC3BB",
"x. c #D7CEB0",
"c. c #E0CFA2",
"v. c #E4D4A4",
"b. c #E9D5A3",
"n. c #E6D9A6",
"m. c #EBDAA5",
"M. c #E5D6AA",
"N. c #E8D6AC",
"B. c #E7D8AB",
"V. c #EADAAC",
"C. c #EADBB1",
"Z. c #EADCB5",
"A. c #EDE0B4",
"S. c #F3E2B4",
"D. c #F4E5BC",
"F. c #F1EABD",
"G. c #AEB2C0",
"H. c #B3B7C3",
"J. c #B5BAC5",
"K. c #B9BDC4",
"L. c #B4BAC9",
"P. c #B8BCC9",
"I. c #BCC1CB",
"U. c #C5C4C2",
"Y. c #C9C6C4",
"T. c #CBC9C6",
"R. c #CDCCCA",
"E. c #D0CCC5",
"W. c #D0CFCD",
"Q. c #D2D1CE",
"!. c #D8D6C9",
"~. c #C7CBD3",
"^. c #CDD1DB",
"/. c #D4D3D2",
"(. c #D9D7D5",
"). c #DBD9D6",
"_. c #D6D7DA",
"`. c #DCDBDA",
"'. c #E6DBC1",
"]. c #E1DED4",
"[. c #E0DEDD",
"{. c #F2EBCB",
"}. c #F8EAC8",
"|. c #FFF3CD",
" X c #E5E3D8",
".X c #EAE6DA",
"XX c #F7EDD9",
"oX c #FAF4D7",
"OX c #FDF5DB",
"+X c #D7DCE4",
"@X c #DFE3E1",
"#X c #DDE3EA",
"$X c #E4E3E1",
"%X c #E7E8E5",
"&X c #ECECE4",
"*X c #ECECEC",
"=X c #F1EFEE",
"-X c #F9F7E6",
";X c #FEFDE5",
":X c #F4F4EE",
">X c #FDFEEC",
",X c #E6ECF4",
"<X c #EAEDF4",
"1X c #EAEEF8",
"2X c #F4F6F5",
"3X c #FBFAF5",
"4X c #F5F8FB",
"5X c #FEFEFE",
"6X c #FFFEFF",
/* pixels */
"5X5X5X5X5X5X5X5X5X5X5X5X5X5X5X5X5X5X5X5X5X3X2XXX.XXX.X-X4X5X5X5X5X5X5X5X5X5X5X5X5X5X5X5X5X5X5X5XL.~.",
"5X5X5X5X5X5X5X5X5X5X5X5X5X5X5X5X5X3X.Xy.P , + 3 2 & % ; % M 6.' &X5X5X5X5X5X5X5X5X5X5X5X5X5X5X5XL.H.",
"5X5X5X5X5X5X5X5X5X5X5X5X5X5X3X>.8.. > I i.;.6.a.v.d.v.q.A 8.;.3 . 4.C 5X5X5X5X5X5X5X5X5X5X5X5X5XL.+X",
"5X5X5X5X5X5X5X5X5X5X5X5X5X` K * U J 5.a.v.v.v.d.r.s.v.s.v.n.v.v.=.I 2 > k 5X5X5X5X5X5X5X5X5X5X5XL.J.",
"5X5X5X5X5X5X5X5X5X5X5Xm e.4 R 8.a.a.p.s.p.s.p.a.d.c.d.a.i.i.d.s.v.b.v.=.3 G s 5X5X5X5X5X5X5X5X5XP.H.",
"5X5X5X5X5X5X5X5X5X3Xm.X T s.s.v.i.a.8.u.Y s.a.a.s.a.a.s.a.a.a.s.v.s.v.v.M.I O Y 5X5X5X5X5X5X5X5XL.K.",
"5X5X5X5X5X5X5X5X3XT 2 i.4.v.v.s.s.q.s.r.s.v.p.i.i.p.p.s.d.a.s.a.v.s.p.b.v.V.g.q Y  X5X5X5X5X5X5XJ.L.",
"5X5X5X5X5X5X5X-X7.x v.s.s.s.p.s.t.s.s.a.q.i.Y :.;.a.q.q.p.q.s.a.a.a.s.v.v.M.N.N.g I O.5X5X5X5X5XL.H.",
"5X5X5X5X5X5X:Xp.I s.b.d.p.s.s.p.m.s.v.a.*.' 2.z.2.o.z.1.` 0.i.a.b.b.d.b.s.v.B.v.V.F k !.5X5X5X5XJ.K.",
"5X5X5X5X5X3X7.z s.v.v.p.v.p.s.v.q.r.2.O.#.2.Y.z.U.z.z.l.Y.E.2.1.m.p.s.a.s.v.M.M.v.V.M 4.3X5X5X5XJ.H.",
"5X5X5X5X5X6.h T v.v.s.q.s.s.p.p.2.#.T.z.Y.T.Q.Q./.Q.(.Q.R.T.l.z.l.<.q.s.a.s.v.v.n.M.M.i u.5X5X5XJ.J.",
"5X5X5X5X1 = J v.M.v.v.s.b.i.- 3.k.z.Y.U.4X.X).$XW.T.!./.T.&X5X/.E.T.l.3 p.v.v.s.v.q.v.g.> : 5X5X+.<X",
"5X5X5X:Xh 5.v.M.A.c.*.p.r.O...3.Y.l.(.(.R.Q.).W.Q.W.l.W.].T.R.$.3XQ.l.k.^ p.v.M.Z.: ,.M.5 h .X5XK.I.",
"5X5X5Xv Z d.M.B.}.C.2 :.X.3.W.Y.Y.7 $.T.#.W./.[.Q.T.U.Y.W./.W.(.T.(.).Y.#.m q.e.-.*.M.V M.4 N 5XJ.<X",
"5X5X X$ R M.M.g.V.m.-.( W.3.T.T.U.W $.U.T.W.W.Q.Q.W.W.W././.Q.Y.Y.W.R.(.T.2.0 v.n.s -.v.n.*.= &.J.L.",
"5X3XN A n.6.y.9.M.v.v U.T.T.W.W.W.U.T.Y.R.Q.T.Q.Q.Q.W.R.W.R.U.T.z.Q.W. XT.Y.Y.q.d.v.M.p B.t.p * P.P.",
"5X3XF i.F Z.w.n.N.p.U.U.R.T.R.W.R./.Y.R./.R.U.T.R.R.U.U.U.R.#./.~ ).#./.).R.T.2.p.N.B.e.L v.h 4.L.~.",
"5X< k d.C.A.D V.N.e R.R.W./.R.T.f Y.W.U.R.3.T.R.U.R.Y.U./.R.Q.U.R./.| (.{ `.Y.T.V v.M.r.y.B.v.: 9 ^.",
"5X6.d.v.n.A.v.C.g.Y.`._.W.W.W.&.U.R.R.U.T.T.R. X(./.U.R.R./.R./.(.U.~ `.| /.W.R.U.s.e.h B.B.V.i w #X",
"5X-.p.B.B.M.9.v.; $XT./.T./.^.Y.R.R./.R.I.R.R.Q.W.R.R.R.R.W.Q.(./.U.(.T.R.)._./.R.r.C.j.M v.B.M m ,X",
"2.$ n.n.M.G F S.Y.T.Q.Q.W.W.R.).W._.U.Y.Q.W.@./.R.R.R./.Q.R.R./.&.R.`.(.Y.).`.).!.; b.e.,.V.N.r.m ,X",
"# 5 s.n.M.M.A.p./.R.Q.).T._.9 Y./.W.U...U.W.R.Y.Y.R.W.R././._.&.R./.`.~ W /.).).E.].p.b.Z.r.n.M.6 ,X",
"& 6.h.B.C.e.V.w.T./.R.R.W.Q.@ [ &.)./.U.W.W.R.~.W./.W.R.R././.W._.Y.(.y /._.`.(.W.Q.p.M.V.V.V.N.8 G.",
"- q.s.n.M.M.*., T.T.W.T.^.W.W.*X@X`.`.R.U.R.Y.R./.R./.(.(.(./.@.~ R._.y Y._./.(.].$.p.V.C.V.V.M.t 7 ",
", 6.r.v.B h N & Y.].3.R.R.Q.T.9 Q.(.Q.R.Q.T.Y.^.R.R.Q.(.R.).Q.Q._.T.`.y b `././.).l.p.V.V.v.C.B.r 8 ",
"% v.q.v.M.Z.9.- /./.R._.^.W.Y._.$XQ.W.W.Q.3.R.R.R.R.W.W.R.(.R.Q.`.Q T.Q ^.`./.).(.W.p.M.B.0.j.B.b E ",
". r.p.v.M.*.v.& T.W.W.W.R.W.~ | W.[.=XQ U.U./.U.R.W.[.W.)./.R.~ `.R.#.3.`.(./.(.W.z.p.C.B.V.B.M.r 8 ",
"O *.g.r.v.e.M.j Y./.R.W.W.(.U.@.&.@.7 3.K.W.R.R.U.R./.W.Q./.Y./.R._.)._.`././.W.(.R.8.V.V.C.V.n.! ~.",
"# p m.y.v.V.XXM.T.Y.T.W.I.Y.U.Y.W.)./.Q.&.U.W.W.Y.W.W.R._./.3.3.R.(.#.R.(.(.W.W.E.` v.V.B.D V.v.w ] ",
"! : V.q.v.v.D.F 3.3.U.Y.Y.W.U.r U.U.).T.T.R.R.R./.R././.W.Q.W./.(.(._.(./.W./.W.z.i M M.V.v.C.5.( G.",
"3XU n.q.s.=.=.M.e $.3.Y.T.R.T.U.8 &.@.6 U.U.T.T.R.R.W.Q.K.3.W.~.W.).W.R.W.W.W.W.U.u.V.M.a.B.C.4.! J.",
"5Xk }.q.v.v.p.v.) ..@.Y.&.U.Y.[ [ } W.W.U.U.R.R.Y.R.R.R.W.W.W.R.Q.(.Q./.W.W.T.3.m b.b.k 0.M.M.y.6 L.",
"5XO ) M.r.M.9.v.p.O. .#.l.U.R.l.| U.U.R.U.Y.R.U.R.W.Y.Y.~.W.T.W.Q.W.U.T.W.R.T.@.g.p.v.v.N.B.I Y ~ 1X",
"5X%X;.C.q.s.g.C.V.N o.#.&.l.3.R.U.&.R.Q.W.W.I.Y.T.T.Y.T.W.W.R.W./.W.R.W.T.E.2.s i.N.N.q.M.v.q.5 L.J.",
"5X5X$ }.r.v.h.B.v.g.q ..3...U.T.3.~ U.Y.Y.U.Y.Y.U.U.T.W.W.T.9 Q.Q.W.T.R.l.l.3.i.v.N.p.Y v.r.l o L.J.",
"5X5X9 B V.r.M.v.v.6.r.O.2.o.U.$.Y.d r 9 8 W U.T.T.R.~.T.r Q.W.Q.R.Q.W.W.#.} 0.v.M.S N.H n.-.B <XL.L.",
"5X5X5X  |.d.s.n.V.c.v.d.X. .$.Y.U.l.3.W.Y.3./.W.R.W.9 /./.R.U.R.R.T.E.2._ ) 6.v.s.y.K a.Y l O 5XL.^.",
"5X5X5Xo.;.A.q.v.r.v.v.b.p. .3.@.T.2.U.3.U.Y.&.T.R.3.U.W.Y.&.3.T.Q.Y.l./ V p.s.b.v.a.d.V.m.. :X5XI.I.",
"5X5X5X5Xo z V.r.v.v.v.c.b.i.b  .#.3.$.3.K.Y.U.~ R.3.T.W.T.3.W.U.&.2.#.0.c.v.b.v.v.d.n.A.P !.3X5XH._.",
"5X5X5X5X3X+ oXm.r.g.c.M.v.s.i.S.3.#.3./ 3.U.3.Y.Y.3.T.T.U.&.3.3.@.x.i.p.N.N.v.v.v.m.f.P o 5X5X5XJ.J.",
"5X5X5X5X5X&XA OXb.r.r.i.v.s.r.s.s.V.2.{ ..2.U.3.3.$.o.l... ...C s.d.B.v.v.n.B.n.v.a.7.o 2X5X5X5XL.P.",
"5X5X5X5X5X5Xc N ;Xb.r.p.h.v.M.s.r.q.7.s.{.<.<...( X.z.1.'.Z.7.i.v.6.B.B.V.B.v.n.f.m.O :X5X5X5X5XL.P.",
"5X5X5X5X5X5X5X( S >XV.p.v.v.p.w.w.v.s.q.c.p.b.p.r.v.i.b.b.v.N.M.h.M.M.v.B.v.h.oXi.O $X5X5X5X5X5XL.J.",
"5X5X5X5X5X5X5X5X.X$ OXD.q.v.v.q.g.v.v.g.p.v.v.p.g.M.M.B.v.r.v.v.M.v.v.v.s.q.OXP O *X5X5X5X5X5X5XL.~.",
"5X5X5X5X5X5X5X5X5X<Xi 4.OXb.8.v.v.v.v.v.M.v.v.p.v.v.M.M.b.M.v.M.v.M.v.q.A.{.3 ! 4X5X5X5X5X5X5X5XH.#X",
"5X5X5X5X5X5X5X5X5X5X5Xn > oX;XV.r.v.v.c.v.v.v.v.M.M.M.v.N.v.v.s.N.B.F.>X8.:  X5X5X5X5X5X5X5X5X5XL.4X",
"5X5X5X5X5X5X5X5X5X5X5X5X*XN u D.>XS.m.d.v.g.M.s.v.N.v.v.v.v.p.B.{.>XT j !.2X5X5X5X5X5X5X5X5X5X5XH.,X",
"5X5X5X5X5X5X5X5X5X5X5X5X5X5X*XF H B {.3X-XD.b.S.S.}.S.Z.oX-X;Xr.g S ].2X5X5X5X5X5X5X5X5X5X5X5X5XJ.,X",
"5X5X5X5X5X5X5X5X5X5X5X5X5X5X5X5X3X X=.q.Y x R 5.Y 4.Y H Z 4.G Z.$X5X5X5X5X5X5X5X5X5X5X5X5X5X5X5XL.L.",
"5X5X5X5X5X5X5X5X5X5X5X5X5X5X5X5X5X5X5X3X2X%X&X` ` c ! k.$X3X5X5X5X5X5X5X5X5X5X5X5X5X5X5X5X5X5X5XL.J."
};
