/* XPM */
static char *a7b4fadb681049ae8dade6ed7129e069n8JOqaLpdfVSPdpy[] = {
/* columns rows colors chars-per-pixel */
"50 58 122 2 ",
"   c None",
".  c #020101",
"X  c #0B0A0A",
"o  c #130E0C",
"O  c #14100F",
"+  c #131211",
"@  c #1D1615",
"#  c #1E1E1E",
"$  c #2F0701",
"%  c #290B06",
"&  c #2B0E0A",
"*  c #370701",
"=  c #380701",
"-  c #3B0B03",
";  c #29120E",
":  c #3E1206",
">  c #361109",
",  c #201716",
"<  c #2C1512",
"1  c #201817",
"2  c #291C12",
"3  c #211B1A",
"4  c #21201F",
"5  c #2D2119",
"6  c #34261E",
"7  c #3C281B",
"8  c #232222",
"9  c #2B2623",
"0  c #292827",
"q  c #2C2A2A",
"w  c #362A26",
"e  c #3B2D24",
"r  c #322E2C",
"t  c #392D2A",
"y  c #33302F",
"u  c #38302B",
"i  c #3F382F",
"p  c #353434",
"a  c #3A3331",
"s  c #3C3836",
"d  c #3D3B39",
"f  c #401608",
"g  c #421C0B",
"h  c #44210E",
"j  c #452611",
"k  c #462812",
"l  c #432D1E",
"z  c #4C3322",
"x  c #473428",
"c  c #4E3729",
"v  c #513724",
"b  c #543925",
"n  c #593B27",
"m  c #563B29",
"M  c #5C3E29",
"N  c #403533",
"B  c #423836",
"V  c #4A3C35",
"C  c #423D3B",
"Z  c #493E3C",
"A  c #5E402A",
"S  c #4A4135",
"D  c #43413E",
"F  c #4B413E",
"G  c #56493B",
"H  c #5B4B3E",
"J  c #63432B",
"K  c #69462E",
"L  c #6B482F",
"P  c #624632",
"I  c #664834",
"U  c #6E4A31",
"Y  c #6C4E39",
"T  c #714D32",
"R  c #444240",
"E  c #4D4441",
"W  c #4C4945",
"Q  c #4E4C48",
"!  c #514744",
"~  c #534846",
"^  c #5F4B40",
"/  c #534D49",
"(  c #594E4B",
")  c #55524D",
"_  c #5D504D",
"`  c #515051",
"'  c #5A5650",
"]  c #5C5852",
"[  c #585758",
"{  c #5F5E5F",
"}  c #654E43",
"|  c #675144",
" . c #695147",
".. c #625552",
"X. c #655955",
"o. c #695B57",
"O. c #645C5A",
"+. c #6B5D5A",
"@. c #6A625F",
"#. c #74635D",
"$. c #6B6462",
"%. c #6B6A6A",
"&. c #756561",
"*. c #7A6C64",
"=. c #746C6A",
"-. c #796D6A",
";. c #7A716E",
":. c #767576",
">. c #7D7371",
",. c #7D7C7D",
"<. c #827572",
"1. c #827A75",
"2. c #867F7D",
"3. c #89817F",
"4. c #848384",
"5. c #8B8482",
"6. c #908F90",
"7. c #929192",
"8. c #9D9D9D",
"9. c #A2A2A2",
"0. c #ABAAAB",
"q. c #B5B4B5",
/* pixels */
"                                          # # # 4 4 4 4 4                                           ",
"                                    # q.4.:.:.:.:.:.:.:.:.0.8.4                                     ",
"                                # :.:.:.:.:.:.:.:.:.:.:.:.:.:.:.q.                                  ",
"                                p :.:.:.:.:.:.:.:.:.:.:.:.:.:.:.:.4                                 ",
"                          4 R ] ' :.:.:.:.:.:.:.:.:.:.:.:.:.:.:.:.] ' 4                             ",
"                      8 Q R R R R 8 :.:.:.:.:.:.:.:.:.:.:.:.:.:.8 R R R ) 4                         ",
"                  # R R R R R R R R { :.:.:.:.:.:.:.:.:.:.:.:.:.W R R R R R R 4                     ",
"              # 8 d R R R R R R R R ) :.:.:.:.:.:.:.:.:.:.:.:.8 R R R R R R R R p p d               ",
"          p ' R R R D / R R R R R R D 4 :.:.:.:.:.:.:.:.:.:.:.R R R R R R R R R R R R ]             ",
"        4 ' R R R R R R ' R R R R R R R :.%.p 4 4 4 4 8 [ :.0 R R R R R R R R R R R R R 8           ",
"        ' R R R R R R R R R 0 R R D R R 4 @ 1 , @ 1 1 1 , , 4 R R R R R d R R R R R R R ' 8         ",
"      4 R R R R R R R R R R R 8 R R 8 , , , . X 4 R 3 . . , 1 1 8 p y R R R R R R R R R R d         ",
"      W R R R R R R R R R R R R R , , , 1 . F E q s F Z a . 1 1 , 1 R R R R R R R R R R R `         ",
"    8 R R R R R R R R R R R R R 1 1 @ . 9 ' . z z z z . _ B @ 1 1 1 3 R R R R R R R R R R R 4       ",
"    4 R R R R R R R R R R R R @ , , O Z ;.z z v z z z v 7 / Z 9 @ @ @ 4 R R R R R D R s R ] [ #     ",
"    ' R R R R R W ] 4 D R R # @ @ X Z $.A z z v z v v v 7 v $.F 3 @ @ @ 4 4 4 8 ' ) R R R R R [     ",
"    ` R R R R R R R R R R # @ @ X Z E z m z z v z z v v 7 z v F 1.X @ , 3 C R R R R R R R R R R     ",
"    R R R R R R R R R R R # , @ ..r X v b 7 z v z z b b 7 v b . a Z , , 3 R R R R R R R R R R R     ",
"    R R R R R R R R R R R 8 , . a E z b v 7 z b z z b b 7 v b b E E . , 3 R R R R R R R R R R R     ",
"  4 # # # # # # 0 0 y p s d , X ! 5.v b v 7 9 8 y ] 1.*.| | } b . F @ 3 q d d d d d d p 8 # d R     ",
"4 8.:.:.:.:.:.:.:.:.:.:.:.:.8 . ! . v 3 w < > f g g g : = %  .b z ! @ q.:.:.:.:.:.:.:.:.:.:.:.7.q.{ ",
"4 :.:.:.:.:.:.:.:.:.:.:.:.:.:.# ! z v e ; = f g j j g g - ; #.n v X.@ :.:.:.:.:.:.:.:.:.:.:.:.:.:.8 ",
"  :.:.:.:.:.:.:.:.:.:.:.:.:.q . ! n v b r - g h j j j g : < *.n v ` @ :.:.:.:.:.:.:.:.:.:.:.:.:.7.  ",
"  4.:.:.:.:.:.:.:.:.:.:.:.:.3 8 ~ n v n } - g h j k j g : 6 B n z =.@ :.:.:.:.:.:.:.:.:.:.:.:.:.4   ",
"  4 :.:.:.:.:.:.:.:.:.:.:.:.3 a 8 n b n | * f g h j g g - t 8 n v >.@ 7.:.:.:.:.:.:.:.:.:.:.:.:.4   ",
"    ] R R R R R R R R D R W X ~ ( M n M } * - f g g g f = V x n b -.@ 4.:.:.:.:.:.:.:.:.:.:.:.:.    ",
"    Q R R R R R R R R R R R . ( ( n A M 8 4 9 r i S G H H } v n b X.o 3 ' ] ] ' ' ) / Q Q ) Q W     ",
"    Q R R R R R R R R R R R . ( ( n n M n l M n M M M M l A b A b ..N 1 R R R R R R R R D D D [     ",
"    / R R R R R R R R R R R . 8 4 b n A n l A n A M M M l M b A n ..8 , R R R D R R R R R R R W     ",
"    W R R R R R R R R R R D # 0 r l n J M l I n J J J J l J b J n 8 w 3 R R R R R R R R R R R r     ",
"    p R R R R R R R R R R D >.8 C 5 n J n z Y J A J n J l J 2.J M ( ( # R R R R R R R R R R R 4     ",
"    4 R R R R R R R R R R C &.4 _ _ _ _ _ _ ( _ _ ( _ _ _ _ _ ;.M ( ( @ R R R R R R R R R R R 4     ",
"    4 R R R R R R R R R R d ..4 _ =.( _ _ ..( r .._ _ ( _ Z 3._ _ _ _ 1 R R R R R R R R R R R #     ",
"    4 R R R R R R R R R R d ( 4 _ w t _ ..( } w w s _ _ _ a w B _ # _ 1 R R R R R R R R R R R #     ",
"    4 R R R R R R R R R D D ' 4 _ _ _ ( ( ..( ..~ ( _ _ _ _ _ _ # _ .., R R R R R R R R R R R       ",
"      R R R R R R R R R R R ( 0 _ _ ~ Z r q 8 8 8 8 8 8 8 # _ # A .._ , R R R R R R R R R R R       ",
"      C R R R R R R R R R R B 4 X.X M K K K z J L J K K K P # -.9 .._ , R R R R R R R R R R E       ",
"      d R R R R R R R D d d 4 ..X.+ J L K K z J K J L K L r ( ~ r B X., R R R R R R R R R R W       ",
"      d d R R R R d d d d d # ..q @ J U K U z J L J I K L +.x y w ..a , R R R R R R R R R R Q       ",
"      R d d d d d d d d d d @ 8 w r U U J U z J U K U J L ~ I L M ~ X., R R R R R R R R R d C       ",
"      d d d d d d d d d d d @ _ o.O.T T J U z J U L U J U 8 ~ ( ! a E @ d d R R R R R R R d 4       ",
"      4 d d d d d d d d d d @ ' X.>.T U K T v K T U T K U z c c w o.9 @ d d d d d d d R d d 4       ",
"      4 d d d d d d d d d d @ _ # -.T T U T m K T U T T T z U U 2 o.o # d d d d d d d d d d 4       ",
"      # d d d d d d d d d d @ ~ w ..T U T T M K U K T U T z T T o r X # d d d d d d d d d d 4       ",
"      4 d d d d d d d d d d # C ....T U T T I T T L T T T z w T . u O # d d d d d d d d d d         ",
"        d d d d d d d d d d # -.@ # 3 9 9 9 9 8 8 4 # # # # +.# . ... # d d d d d d d d d d         ",
"        d d d d d d d d d d # =.B X.3 +.&.&.&.&.4 &.&.&.&.X.# o.# ... 8 d d d d d d d d d d         ",
"        d d d d d d d d d d @ -.r ! ~ B &.&.&.q ..( &.&.o.E ! 8 o.8 . d d d d d d d d d d d         ",
"        R d d d d d d d d d 4 =.4 4 u o.o.&.&.&.B _ &.&.O.q u o.a ..X d d d d d d d d d d R         ",
"        / d d d d d d d d d 0 { # o.o.o.o.&.&.&.&.&.&.#.o.o.o.# -.-.@ d d d d d d d d d d 0         ",
"        / d d d d d d d d d p 8 =.o.o.o.o.o.&.&.&.&.&.o.o.@ ` o.o.o.@ d d d d d d d d d d 4         ",
"        R d d d d d d d d d d q o.( q o.o.o.o.&.a C &.o.o.o.8 Z o.o.@ d d d d d d d d d d #         ",
"        d d d d p d d d d d d 0 o.! / ! o.o.o.~ ! _ r o.o.o.! ! C O.+ p d d d d p d d d d 4         ",
"      q 9.9.9.9.8.8.8.8.8.8.,.7._ r a 4 o.o.o.o.u u O.o.o.o.r p ' 0 %.%.%.%.%.%.%.%.%.%.%.9.#       ",
"    # %.%.%.%.%.%.%.%.%.%.%.%.%.( o.O.o.o.o.o.o.X.o.o.O.o.o.+.+.o.4 %.%.%.%.%.%.%.%.%.%.%.%.`       ",
"      %.%.%.%.%.%.%.%.%.%.%.%.%.# # # @ 8 q 0 8 # # # # # @ # # # # %.%.%.%.%.%.%.%.%.%.%.%.#       ",
"      %.%.%.%.%.%.%.%.%.%.%.%.%.%.=.%.=.:.%.%.%.=.=.%.%.%.%.=.%.%.# %.%.%.%.%.%.%.%.%.%.%.%.#       ",
"      4 W d p 0 # # # # # # # # # # # # # # 8 # # # # 8 # 8 # # # 4 # # # # # # # 4 # # # #         "
};
