/* XPM */
static char *_2d63813df4140b9d78a49560189f626RyxGXv7PrWj1FLPH[] = {
/* columns rows colors chars-per-pixel */
"50 50 89 1 ",
"  c #37291C",
". c #3C2D1F",
"X c #3E2F21",
"o c #443323",
"O c #4A3626",
"+ c #4D3827",
"@ c #4E3929",
"# c #523A27",
"$ c #543D2B",
"% c #583F2D",
"& c #57402E",
"* c #5A412E",
"= c #574130",
"- c #5D4431",
"; c #5F4836",
": c #60442F",
"> c #614632",
", c #644935",
"< c #694C36",
"1 c #6A4D36",
"2 c #6A4C37",
"3 c #6C4D34",
"4 c #674B38",
"5 c #664C38",
"6 c #674D38",
"7 c #6B4F39",
"8 c #684D3A",
"9 c #6B4E3A",
"0 c #6C4F3A",
"q c #6C4F3B",
"w c #6E5039",
"e c #6C503A",
"r c #6D513A",
"t c #6D503B",
"y c #6D523C",
"u c #6F523E",
"i c #71523B",
"p c #71533C",
"a c #71533D",
"s c #72533C",
"d c #73543D",
"f c #73543E",
"g c #74553D",
"h c #76573E",
"j c #77573F",
"k c #78583E",
"l c #6D5442",
"z c #725540",
"x c #735540",
"c c #755741",
"v c #765740",
"b c #765842",
"n c #7A5940",
"m c #785942",
"M c #795A43",
"N c #7A5B43",
"B c #785A45",
"V c #785A46",
"C c #7B5C46",
"Z c #7D5D45",
"A c #7C5C47",
"S c #745D4A",
"D c #7A5E49",
"F c #7D5E49",
"G c #7F6047",
"H c #7E614B",
"J c #805F45",
"K c #826146",
"L c #836249",
"P c #84654A",
"I c #80634C",
"U c #82634C",
"Y c #8B6A4F",
"T c #816551",
"R c #836651",
"E c #846752",
"W c #876953",
"Q c #8C6B54",
"! c #8C6E58",
"~ c #8D6E58",
"^ c #927058",
"/ c #91735C",
"( c #98765A",
") c #967761",
"_ c #997760",
"` c #9E7C63",
"' c #9D816C",
"] c #9D8371",
"[ c #A58977",
/* pixels */
"+*$7o4,$i:%%*d,^0,,i*$2#ro~$>4>$-*7#m>,0>,%-r,/m2a",
">#*a,-r-,>:**K1,7-#*X,*,0*00-7$-#%4,>a,-a%-*Zr%,,+",
"#Crh#4h,44,xi-,-I03R,%RBm$0i4$43r0$+ab,,17dcZa,m,b",
"@161=y*o4r42,r01,@~r-,00y*m,>@4,,a-$0- r,7>rBa%,-Q",
",7$y-x0-0>+Z$7>Ui>-%-7-06-r,%,,hF+0-Hy,d#-b-747,-@",
"7%y,@$h->,y07%,--,$h$7$0-o-,y&0,>7,-$d%>@D7--,-*,*",
",$>#yBma,@6-,%1,h2y-@,-,$hBdb,X**@$c7,>d%,=7$,,,7$",
",4%>---#-x-%>$,$,#@y,---6,-%-o477,>$,-@+,,-,,,-a$$",
";qam0,7@$=>r%0>4y-a4,-0,Ax6>>,$y0jca1U$%,%0>1hx->A",
",O$$c>q@%=,--$4-$-*@-2-*&7-7+o11**#>,,$%->,>*$;*7$",
"*4%20,,*P,,7$q$;$>,#-$,-y>>-*ar$m*>,,*=a>,,%%*--,,",
",%>0b@72#m,cc%a7=,,y$2>1$B$j$hQ7Z>Jj$ym-c,7h*Zr*6r",
"Oa4>a$0-,m2>>c%>,0c$0O7->0-~%%6%2c,m@,,cmr>>4=-,aZ",
"*a0hZm,,,,>0J*,,0-,U-,c,a~',m---7yF,7-%>m-rbhrOY>7",
"0-B>,-7*-0-$%>P#Fa,7-Z*c#7Xx#0*,$0,c,42$,-1,*,*7a,",
"0,IQ#-%-%-$>-Z0Z=7*$hr4'a-,-*%rr,0_,,7h,-,,-^ri=2-",
"*-r*&-$,m&%,-=#7a@--,>*h>r>@-,kO*r>O2>,d&%y$,-1y#&",
",,3ra,,$-#a,0r76j%*-1,0*,h-;oc*0%md04,*-$77>7xb>-#",
">,$>&>--,7,1-16&qa7y-3,-*%7^$$66,-r-,Oy,yr$%6,$xb6",
"i**-F-7#*x>%0-r,,zao-13**6-c#*>>>,>c>**$h7*d-,-,Fr",
"%haa%>,%6---a#Z*>7,$7-1I]O,@-=y,hh0r*a%4,,%0#'$1-7",
">#>,Oq>O,>@%$3-Z->-0@>*>,Om#--#-$*0#r*%am+,-*0Dh-1",
"7,&ay>,---%$ra>=1>@%O>>*mh0>=-@-->>,-a--4@>,a%*>-o",
"#Ihr*07*7r>r>$3*r-3[*-/Bc@,0*->,7k:1m0>,c-ah,i12=r",
"+1,,%J-O-~7>,x,,64Wy0+yc,-B%,+a--,+-B,+4R0,,R,&,=)",
"al,a@0,%x$$yo70Z,20-cBBa-$4%O700c@a$hr*c%0a%ryH-7%",
"7-h-+$2,,1m77$%=q;o=>q-7,o@,7%4-,r%$+7-=*U0-%,&6;$",
"h#O;0Ryy%$B$h$a7$777>ya+,0W3YSX4o%-h77,>-i-a@y0+>,",
"-,-7,;%,m7-+=$-$-@=rr*16rx7%%-6--->,--,;7,*%b>-,@*",
";B4Fc%;%%%$102,=y$0--Dx,Dy;1>>-$yxa7-m%%-*a-,h,--a",
"7+*#4-4o$*,-%$a-@=$$*y-7,,>-$@--##o,--o%,@>>-0>-,$",
"--%y,--%WZ->%a=y-,,o-#;$7@*$>Z,---7,r-*ar-1$-,472y",
"%#,,r,c>>,>0,>a,d,46@*@,-,cx-aB,7,h2-c7*,--i%a,F76",
"+x,>ch,>,4hh0a,>crd,d$70b7c>7=7-y7$$-a=2aa10H0>hBx",
"-c,aba7==*>am-20-->a&>h,h~D07$%,0rr-7%O*0-,m7B+a94",
"B$7,*lc-F#O>-a-oI--,-m$,*0-y#h>,*0,1la,y-%%>,&&d,=",
"0%Fm->-,-$%7-0cc%,%r1a*Q1,,10$h7-qLq0-0-#>4#Imi-7-",
"O-i$-2%a4+O---o1(;*,a:%c*,7>>y>o*0-*0-,7>O4>-+1R,%",
",,0a,%,#,i-77,1*7%-$>>>a0a+-o>r,->1>%,%-,>4;-r,h%O",
"0h%m*r,@-677$0$d7aZ122j>i%y^%--a0Om>y,--r,*r1;4rcb",
"a%>,Z>y=-r,=,-,-qlaX%,,4,7,S#%,N,-,0,;--*y-,-y%,c,",
"#a0c,r,,a700b$7,9,7$4#>A)$>,*,j$cc,0q>,977$0+m,0,0",
"1+j$0y@#%micy+7%+-y2o7$qOm,%-00j-d,a-$-,a7mZ#d-#-,",
"-7>,0@y7-,#>i4m*977$-%2->2*h--a$72-c#>4>--*0,@%;yy",
";aa01y>#%7-6h*c0,-7R,0yIm-]>>S-$,qcm7-,%U-r7axOU$d",
",>R#-,,#%P7->Oh0,`c,,xxH%--y7Z>>%7o4y,7$!y7,,7-;'B",
"c7BmO=>o,-$7%h72,%a%004U0B--o-,Zx0^$%3O1>$,=mch**h",
"4>c,O4-449%>c*-,,%%>,,-,7>%;,7,=,y,@2,,4+>0,>;-d*$",
">a+2ccy>%$b-x7,74=->31ro,h16r~o7%a40m4*%,i>d7,y-**",
"%,,0,@-b44,o=O-*+Z,N1*1,a,-H,-7$#->;oXW>>4$$#;-&m,"
};
