/* XPM */
static char *c54df54e4a714e9eafa088ca781c9cddq5jjOfDJvMZQ314u[] = {
/* columns rows colors chars-per-pixel */
"50 50 232 2 ",
"   c None",
".  c #1D1D15",
"X  c #171C1A",
"o  c #1C1E1C",
"O  c #171A17",
"+  c #1E1F0E",
"@  c #231D1C",
"#  c #231F16",
"$  c #381B0F",
"%  c #14250E",
"&  c #1C2115",
"*  c #15211D",
"=  c #1B211C",
"-  c #132214",
";  c #25250E",
":  c #252315",
">  c #2A2414",
",  c #23221C",
"<  c #2A251D",
"1  c #2C2A1B",
"2  c #282A18",
"3  c #312319",
"4  c #332E1C",
"5  c #392914",
"6  c #36321F",
"7  c #3C351C",
"8  c #3E3718",
"9  c #372E13",
"0  c #161E23",
"q  c #1C1D23",
"w  c #1D1B2A",
"e  c #151E2B",
"r  c #1A1B32",
"t  c #221D22",
"y  c #281E28",
"u  c #301C21",
"i  c #152223",
"p  c #1B2222",
"a  c #1B2829",
"s  c #1A2E35",
"d  c #192833",
"f  c #142C2F",
"g  c #232323",
"h  c #292421",
"j  c #2B2C23",
"k  c #282C29",
"l  c #322C23",
"z  c #342F2B",
"x  c #2F3225",
"c  c #2D312D",
"v  c #323324",
"b  c #3C3524",
"n  c #33332A",
"m  c #3C3A2A",
"M  c #3B3A26",
"N  c #292933",
"B  c #22373C",
"V  c #3D3A35",
"C  c #383A3F",
"Z  c #431B1F",
"A  c #452D0B",
"S  c #472D06",
"D  c #452C14",
"F  c #443D15",
"G  c #612D10",
"H  c #572823",
"J  c #443D26",
"K  c #453E2A",
"L  c #483724",
"P  c #4B373D",
"I  c #5C3B24",
"U  c #693528",
"Y  c #79262A",
"T  c #3A532C",
"R  c #3E4233",
"E  c #2E442E",
"W  c #5B451A",
"Q  c #4F4519",
"!  c #634B06",
"~  c #706414",
"^  c #48452C",
"/  c #55482A",
"(  c #5B542C",
")  c #5F5024",
"_  c #4D4D35",
"`  c #4D4D3A",
"'  c #474536",
"]  c #544C34",
"[  c #524E3B",
"{  c #5A4C39",
"}  c #495436",
"|  c #575335",
" . c #5B5235",
".. c #5B533A",
"X. c #5A573B",
"o. c #795528",
"O. c #634D39",
"+. c #645B32",
"@. c #655937",
"#. c #67592F",
"$. c #53753B",
"%. c #587439",
"&. c #73672A",
"*. c #6A6437",
"=. c #79673C",
"-. c #767038",
";. c #1F3E43",
":. c #293C41",
">. c #1E4647",
",. c #234245",
"<. c #234348",
"1. c #2E4548",
"2. c #2C5457",
"3. c #345B5C",
"4. c #294753",
"5. c #2F6B6B",
"6. c #33686D",
"7. c #376469",
"8. c #3A6F6D",
"9. c #5F4F41",
"0. c #595141",
"q. c #625955",
"w. c #516A42",
"e. c #516B43",
"r. c #6C624B",
"t. c #6A6544",
"y. c #776B47",
"u. c #7C764D",
"i. c #796F54",
"p. c #777352",
"a. c #73716F",
"s. c #866B3B",
"d. c #85723A",
"f. c #866C48",
"g. c #8C7C4D",
"h. c #867844",
"j. c #9A7F48",
"k. c #867F54",
"l. c #847B5B",
"z. c #8B7C5B",
"x. c #8C7A57",
"c. c #8A6F4A",
"v. c #A27D58",
"b. c #877C60",
"n. c #509155",
"m. c #458753",
"M. c #699146",
"N. c #6C9957",
"B. c #98863D",
"V. c #9C832A",
"C. c #A18A3F",
"Z. c #9C8445",
"A. c #9D8A44",
"S. c #97834C",
"D. c #9B834A",
"F. c #988B4A",
"G. c #87865C",
"H. c #948958",
"J. c #9E955D",
"K. c #9D9A5B",
"L. c #97965B",
"P. c #8D8A50",
"I. c #A28744",
"U. c #A18945",
"Y. c #A18849",
"T. c #A1955D",
"R. c #A59858",
"E. c #B39553",
"W. c #BA9A5C",
"Q. c #A99340",
"!. c #BAA95A",
"~. c #A2A25A",
"^. c #8A8464",
"/. c #958D63",
"(. c #9E9663",
"). c #999465",
"_. c #A19562",
"`. c #A99C63",
"'. c #B3A569",
"]. c #AEA973",
"[. c #C49F57",
"{. c #C7AA5A",
"}. c #CAA869",
"|. c #D3A669",
" X c #C6B774",
".X c #DAB973",
"XX c #D9B462",
"oX c #E2BD6F",
"OX c #D5CA57",
"+X c #F6D757",
"@X c #EDD259",
"#X c #DCC968",
"$X c #DED477",
"%X c #D4C975",
"&X c #EAC76C",
"*X c #E3CD6D",
"=X c #EDCA6D",
"-X c #E0C16E",
";X c #F2C66E",
":X c #F1CA68",
">X c #EBC672",
",X c #EEC873",
"<X c #ECC67D",
"1X c #E4CE73",
"2X c #F2C673",
"3X c #F1C974",
"4X c #F2C47C",
"5X c #F9C179",
"6X c #FEEB7A",
"7X c #4A8A92",
"8X c #59858F",
"9X c #8A8B88",
"0X c #B1AB85",
"qX c #C4B78D",
"wX c #C0B5B4",
"eX c #D7CA8A",
"rX c #EAC984",
"tX c #E8D98D",
"yX c #F3E58D",
"uX c #F5EB86",
"iX c #EDE698",
"pX c #F6E594",
"aX c #F3E59A",
"sX c #F6E69A",
"dX c #EFE88B",
"fX c #EADFB7",
"gX c #F6E5A3",
"hX c #B5D2D7",
"jX c #C9CDCB",
"kX c #D0D2C2",
"lX c #EEE8D7",
"zX c #EFE7E2",
/* pixels */
"          o 5 A A 9 t )._._.*.o i : A o /.J.T.T.T.J.(.(.J.).G.= S , 5 =                             ",
"          o = S : 0 (._.`.p.o 0 ^.# : q.j w q w q , u.(.R._.T.a A > p q   X                         ",
"          o = A w (.(.K.q m # /.7 X w * j ) g.Z.Z.h.M t , @.`.p.> :   o                             ",
"            o A K T.T.r K.^.4 P.Z.o b Z..X&X=X,X>X,X2X3XoXv._ y.. o   o                             ",
"            o D ^ ).j (.(.* Z.i 9 A ! K ,X3X3X3X,X,X,X3X,X;X=Xj.i p   X                             ",
"              i n l.o (._.o S.b @ & y D 3 >X=X,X3X3X,X3X=X&Xl > w                                   ",
"              q X J.o _.(.o Z.Z.Q.x..X#X0 ! .X3X3X,X3X,XoXG y = =     o < o                         ",
"                i T.o K.(.o Z.Y.l.kXwX2.t # - o.c.>X5X@.D o o q       j | ..q                       ",
"          X X u H ^.z._.J.= x.D.1XlXlX7Xd hXV h *X=X&XrX= s 9X,   o o m { X                         ",
"        o q H U Y o ] { L./.q D.>XrXzXB 7X3.lX<X3X3X,X,XzX8XfXg o n F q :                           ",
"              = H u (.(.u.p i *.rX2X.X3 = g -XrX;X2X,X,XF.f ,Xo 0 b 9.#.< =                     o   ",
"                  o y J._.T.(.X.@ o * = 7 y.'.XX&X4X>X,X,X<X2Xp b { 9.V.n @ o               # 1 H.o ",
"                    o = K._._._.`.pXpX{ @ o q R > 7 [ _.eXgX6X. b ..o.0. . .O.O.w       & ' ..!.uXw ",
"                    o g t q P._._.sXpXgXyXiX] w % . '.yXaXaX~.o {  . . .f.B.I.I.8     = { H.U.*XuXX ",
"              X i i :.,.Z i i.p h `.pXpXpXpXpXsXgXaX0X*.2 OXo b = , o &.B.A.S.+.&.5 = *.I.U.I.1X6X= ",
"            @ ,.>.<.d ,.= $ p b J.. % 0 t @ ] eXdXdXdXdX%XX l _ q     # )  ...O.g.U.Y.C.I.U.I.*X$Xp ",
"          0 ,.>.<.5.n.k 7.l =.r.w 6 J.T.J.).H./.L.].tX: . q X.o       o n / F.U.C.U.U.U.A.h.l z.'.o ",
"        t :.,.:.4.6.m.2.6.o >XoX) >Xq o b L.K.(.).2 @   0 / o           o @.U.U.U.U.U.@.....i.R.2   ",
"        B >.>.3.6.n., 6.6.o >X&X&X=Xo s     X = X     o v h             q #.U.U.Z.+... ... .G.#X=   ",
"        = ,.7.6.5.a 7.6.8.t 2X:X+X|.d.d =             = [ o             q +.=. .0.........^ g.+.    ",
"      i S.i 5.6.E >.6.6.8.t.*X@XP ..OXd q           o b t               p b ........ ...V k.#X=     ",
"    0 S.W.,X* 1.i >.6.6.3.>XW.}.4X4X@X, p           = m                 q b ........X...l.`.t       ",
"    z Z.,X@ : & Z.6 t N q >X;X3X:X=X+Xo q         q J o               O v ^ ........0.b.x.P o       ",
"    7 D.=Xh . 4 3 i v }.#X,X;X# = * = o           , v                 o L ........] z.g.^ -         ",
"  = p._. Xg   o o 5 A 5 U I L jXa.a.jX0         o J o               o v ........p.z.k., o           ",
"  o h @ iXq   , x = o = o , $ 8X:.k a.0         g 1                 @  ...( y.z.g.r.o               ",
"  o G.. &.O   g x n v [ _ [ ] k k c 0.- X d.i o ^ q               X  .r.y.u.b.v w                   ",
"    t.x.P.    o v v _ _ ` ` ` ` ` R ` -.}.< m g &               o q p i 0 0                         ",
"    =.,X/     x v v } ` _ V n v n v n , {., : ( |.                                                  ",
"    Z.4X<X5   v v x ` ` _ x v n j v [ p h n !.=.+                                                   ",
"  = D.,X=X+Xw j x c c , } o x j g _ a pXp g R.@.                                                    ",
"  g j.3XoX{.  w w.T N.' j ' c n j < yX> [ y y.0                                                     ",
"  g D.rX>X,X= - $.M.$.e.dX> q 4 K.J.o ' x p o                                                       ",
"  = ( Z.Z.D.0 : T } $.M.' i o [ , v l v j o                                                         ",
"      t @ , q o %.%.e.E x 1 q o v v v & o q                                                         ",
"              q N @ p 2 X o   o , o q X.s.r.                                                        ",
"              X t o o b q         i D.s.h.g                                                         ",
"              o f.E.j.rX1       O h j.j.[.o                                                         ",
"            @ _ y E.E.c.i       o 2 - = = o                                                         ",
"            o '.0X= W i         = K _.$XeXo                                                         ",
"          X p.y.a iXm           q p.u.t.qXo                                                         ",
"          0 ].t aXgXq           o 9 ; q @                                                           ",
"          p 3 : p w             X : > 4 Q                                                           ",
"          j 4 J L =               , > 4 W X                                                         ",
"          1 6 7 1 .               o > , 6 F D @                                                     ",
"          1 1 ^ ^ ^ ~ @           o : > 6 l b 7 @                                                   ",
"        , 3 3 K J J L ( X         > > , > > < : : @                                                 ",
"        = , = o # X o , p         # o # o g o o o X                                                 ",
"                                                                                                    ",
"                                                                                                    "
};
