/* XPM */
static char *_7e190901382467dbccb783eca5b4b2bg9VmZDP8NYYLjfPK[] = {
/* columns rows colors chars-per-pixel */
"50 50 53 1 ",
"  c #B5B9B9",
". c #C3C5C6",
"X c #C3C7C9",
"o c #C5C9CD",
"O c #CBCDCF",
"+ c #CBCFD3",
"@ c #CED1D4",
"# c #D3D5D5",
"$ c #D4D8D7",
"% c #D4D6D9",
"& c #D5DADC",
"* c #DADCDD",
"= c #D7DEE2",
"- c #DCDEE1",
"; c #DEE1E4",
": c #E3E4E5",
"> c #E6E8E7",
", c #E4E6E9",
"< c #E8E5E8",
"1 c #E7EAEB",
"2 c #EBECED",
"3 c #E6EBF0",
"4 c #E8EBF0",
"5 c #EBEEF1",
"6 c #EDEDF1",
"7 c #EDEFF0",
"8 c #EFEEF0",
"9 c #ECEFF2",
"0 c #EEF0F0",
"q c #EFF1F3",
"w c gray94",
"e c #F1F1F1",
"r c #F3F3F3",
"t c #F1F0F5",
"y c #F2F2F4",
"u c #F3F5F4",
"i c #F4F4F4",
"p c #F7F4F5",
"a c #F6F6F6",
"s c #F4F5F9",
"d c #F4F7FA",
"f c #F6F8FA",
"g c #F5F9FC",
"h c #F7F8FC",
"j c #F8F8F8",
"k c #FAFCFB",
"l c #FEFCFB",
"z c #FFFEFB",
"x c #FAFAFC",
"c c #F8FBFF",
"v c #FCFBFF",
"b c #FAFFFD",
"n c #FCFEFD",
/* pixels */
"::2r<iu02w21w227rwwwr22w2ww2ppspiii2pwrwwr222:r22*",
"nnnnnnnnnnnnnnrnnnnnn<nnnvnn:bnbnnncnnnnnnvbnnnnln",
"nnnnnnnnnnnnnn:nnnnnn-nnnnnn-nnnnnnbnnnnnnlbnnnnln",
"bbnnnnnnnnnnnn>nnnnnn;nnnnnn>nnnnnnhnnnnnnnnnnnnnn",
"nnnn7bnnnnnnnnnnnnnnnnnnnnnnbnnnnnnnnnnnnnnnnjvnnn",
"nnnnrknnnnnnnnnnnnnnnnnnnnnnvnnnnnnnnnnnnnnnntnnnn",
"nnnn2nnnnnnnnnnnnnnnnnnnnnlbnlnnnnnnnnnnnnnnntnnnn",
". +o.X.o#*$#@#+o*=--:;&+%,>,X#==@*:+,,,:,*%-%-:*>@",
"nnnnnnnnnnnnnnpnnnnnn=nnnnnn;nnnnnnsnnnnnnnnnnnnln",
"nnnnnnnnnnnnnn2nnnnnn,nnnnnn:nnnnnnsnnnnnncnnnnnlb",
"nnnnnnnnnnnnnnwnnnnnn,nnnnnn:nnnnnncnnnnnncnnnnnnn",
"nnnn7nnnnnncnnnvnnnnnnnnnnnnvnnbnnnnnnnnnnnnn7nnnn",
"nnnnpnnnnnnvnnnnnnnnnnnnnnnnnnnnnnnnnnnnnnnnn2nnnn",
"nnnnrnnnnnnbnvnnnnnnnnnlvnnnnnnnnnnnnnnnnnnnn<nnnn",
"rrww2yy2221224+,222,,o,2,122X727,72;22r2rp2pijilnj",
"knnnnnnnnnnnnnpnnnnnn,nnnnnn#nnnnnk2nnncbnnbnnnnnn",
"nnnnnnnnnnnnnn0nnnnnn,nnnnnn#nnnnnn2nnnnnnvnnnnnnn",
"njjnnnnvnnnnnn2nnnnnn,nnnnnn+nnvnnn2nnvcncsijccjpw",
"nnnnknnnnnnnnnnnnnnnnnnnnnnnnnnnnnnnnnnnnnnnnrnnnn",
"nnnnvnnnnnnnnnnnnnnnnnnnnnnnnnnnnnnnnnnnnnnnninnnn",
"nnnnnnnnnnnnnnnnnnnnnnnnnnnnnnnnnnnnnnnnnnnnnjnnnn",
"nnnnnnnbnnnnnnynnnnnbpnnnnnn-nnnnnn2nnnnnnnnnnnnnn",
"nnnnnnnbnnnnnnjnnnnnvrbnnnnn%nnnnnn,nnnnnnlnnnnnnn",
"nnnnnnncnnnnnninnnnnlrbnnnnn:nnnnnn<nnnnnncnnnnnnn",
"2>12*772rrw2y5,07:,ry,70272,%,,>2,<#**=*-*##$X%#%;",
"nnnncnnnnnlbnnnnbvbnnnnnnnnnnnnvnnnnnnnnnnnnbpnnnn",
"nnnncnnnnnnnnnnnnnnnnnnnnnnnnnnnnnnnnnnnnnnnnvnnnn",
"nnnnvnnnnnnnnnnnnnnnnnnnnnnnnnnnnnnnnnnnnnnnnrnnnn",
"nnnnnnnsnnnnnn3nnnnnn=nnnnnn:nnnnnn,nnnnnnlnnnnnnn",
"nnnnnnnsnnnnnn0nnnnnn&nnnnnn*nnnnnn2nnnnnnjnnnnnnn",
"nnnnnnnsnnnnnn0bvbnnv&nnnnnn*nnnnnn,nnnnnnjnnnnnnn",
"<,,2=1222121,7>222,r2><,:=,>>-,-:<1,:2:=<,<2<**:2:",
"lnnnsnnnnnnnnnnnnnnnnnnnnnnnnnnnnnnnnnnnnnnnnclnnn",
"nnnnsnnnnnnnnnnnnnnnnnnnnnnnnnnnnnnnnnnnnnnnncnnnn",
"nnnnrbnnnnnnnnnnnnnnnnnnnnnnnnnnnnnnnnnnnnnnnvnnnn",
"nnnnnnnsnnnnnv5nnnnnn=nnnnnn,nnnnnn2nnnnnnclnnnnnn",
"nnnnnnnjnnnnnn0nnnnnn;nnnnnn,nnnnnn,nnnnnnrnnnnnnn",
"nnnnnnnsnnnnnn:nnbnnn*nnnnnn%nnnnnn2nnnnnn2nnnnnnn",
"jnvjjcjcnjjnjvjjvpcnnjjjvppwjprjprpsjciiiiijljvljj",
"nnnnnnnnnnnnnnnnnnnnnnnnnnnnlnnnbnbnnnnnnnnnnnnnnn",
"nbnnnnnnnnbbnnnnnnnnnnbnnnnnnnnnnnnnnbnnnnnnncvlnn",
"wppjrjjjijprcjrsspclsjbjjcjsypjjjppwpryypr227202y7",
"nnnnnnnnnnnnnnccnnnnnsnnvnnn<nnnnnn;bnnnnv<nnnnnnn",
"nnnnnnnnnnnnnnvnnnnnnrnnnnnn1nnnnnn*nnnnnn,nnnnnnn",
"nnnnnnnnnnnnnncnnnnnncnnnnnn>nnnnnn%nnnnnn-nnnnnnn",
"nnnnjnnnnnnjnnnnnnnnnnnnnnnnnnnnnnnnnnnnnnnnnnnnnn",
"nnnnjnnnnnnnnnnnnnnnnnnnnnnnnnnnnnnnnnnnnnnnnnnnnn",
"nnnnvnnnnnnvnnnnnnnnnnnnnnnnnnnnnnnnnnnnnnnnnnnnnn",
",:<1jw8rvrrjjjnjv2jjijrpj2wpijjirplcin<jiiijn7w1y7",
"nnnnnnnvnnknnnnnnnnnnnnnnnnnnnnnnnnnnnnnnnnnnnnnnn"
};
